<svg width="120" height="40" viewBox="0 0 120 40" fill="none" xmlns="http://www.w3.org/2000/svg">
<g clip-path="url(#clip0)">
<path d="M44.4419 24.8536C44.4419 25.0043 44.4419 25.1203 44.4419 25.2479C44.4419 26.5932 44.4419 27.9385 44.4419 29.2954C44.4419 29.8753 44.2215 30.0725 43.6416 30.0841C43.1429 30.0841 42.6443 30.0841 42.1572 30.0841C41.6817 30.0841 41.4497 29.8521 41.4265 29.3882C41.4265 29.2838 41.4265 29.1911 41.4265 29.0867C41.4265 23.2531 41.4265 17.4079 41.4265 11.5744C41.4265 10.7625 41.5541 10.6002 42.3659 10.4958C44.3027 10.2522 46.2395 9.99709 48.1995 10.0319C50.1015 10.0667 51.9455 10.4262 53.604 11.4236C55.7727 12.7341 56.8977 14.6825 56.9556 17.2224C57.002 18.9388 56.6657 20.5625 55.5987 21.9426C55.2044 22.4529 54.6825 22.882 54.1954 23.3111C54.0447 23.4503 54.0215 23.5314 54.1142 23.7054C55.042 25.503 55.9583 27.3007 56.8861 29.1099C57.1528 29.6434 57.0368 29.9333 56.4569 30.0145C55.8771 30.0957 55.2856 30.1189 54.7057 30.1305C54.3346 30.1421 54.1026 29.8985 53.9403 29.5738C53.2908 28.2864 52.6414 26.9875 51.9803 25.7002C51.8295 25.3987 51.6672 25.1087 51.528 24.8072C51.4468 24.6448 51.354 24.5984 51.1685 24.6332C49.2665 25.0623 47.3413 25.1319 45.4045 24.9348C45.0797 24.8884 44.7782 24.8768 44.4419 24.8536ZM44.4535 21.9194C44.581 21.9426 44.697 21.9658 44.813 21.9658C45.4277 22.0238 46.0423 22.0934 46.657 22.1281C47.84 22.2093 49.0229 22.2673 50.1943 21.9542C52.3978 21.3627 53.6387 20.1798 53.7663 17.9414C53.8475 16.4453 53.43 15.158 52.2006 14.2186C51.3656 13.5807 50.4146 13.2444 49.394 13.0704C48.3155 12.8965 47.2369 12.9661 46.1467 13.0473C45.59 13.0936 45.0218 13.1516 44.4535 13.2096C44.4535 16.1554 44.4535 19.02 44.4535 21.9194Z" fill="white"/>
<path d="M76.9962 28.4836C76.4859 28.8663 75.9988 29.2838 75.4537 29.597C74.5143 30.1421 73.459 30.258 72.4036 30.2464C71.1047 30.2348 69.8753 29.9565 68.762 29.2606C67.2311 28.3096 66.2801 26.9179 65.9322 25.1551C65.5378 23.1835 65.7002 21.2583 66.7556 19.4955C67.6718 17.953 69.0403 17.0368 70.7915 16.6889C72.3688 16.3758 73.9461 16.4221 75.4306 17.1064C75.9872 17.3615 76.4743 17.7559 77.0078 18.0922C77.0078 18.0342 77.0078 17.9298 77.0078 17.8254C77.0078 15.6915 77.0078 13.5459 77.0078 11.412C77.0078 10.7393 77.2398 10.519 77.924 10.4958C78.3415 10.4842 78.7475 10.4494 79.165 10.4262C79.6173 10.4146 79.8376 10.6118 79.8724 11.0641C79.884 11.1568 79.8724 11.2496 79.8724 11.3424C79.8724 17.2456 79.8724 23.1371 79.8724 29.0403C79.8724 29.2259 79.8492 29.3998 79.8028 29.5738C79.7332 29.8405 79.5477 29.9913 79.2809 30.0145C78.7591 30.0609 78.2372 30.1073 77.7037 30.1305C77.205 30.1537 77.0078 29.9565 76.9962 29.4462C76.9962 29.1331 76.9962 28.8083 76.9962 28.4836C76.9962 28.472 76.9846 28.4604 76.9962 28.4836ZM76.973 23.4735C76.9498 23.4735 76.915 23.4619 76.8918 23.4619C76.8918 23.2531 76.9034 23.0328 76.8918 22.824C76.8339 21.9774 76.6251 21.1887 76.08 20.5161C74.7231 18.8808 71.7657 18.6837 70.0841 20.145C68.762 21.2931 68.5416 22.7892 68.7968 24.4129C69.0055 25.735 69.7362 26.686 70.9655 27.2079C72.1021 27.695 73.285 27.7298 74.468 27.347C75.5349 26.9991 76.3352 26.3149 76.6831 25.2247C76.8455 24.668 76.8803 24.0533 76.973 23.4735Z" fill="white"/>
<path d="M85.7408 24.3201C85.8684 25.7466 86.5642 26.7208 87.8168 27.2311C89.6492 27.9849 91.4468 27.8689 93.1864 26.8947C93.2908 26.8368 93.3952 26.7672 93.4996 26.7092C93.9171 26.5004 94.1838 26.5584 94.4738 26.9295C94.6477 27.1499 94.8333 27.3702 95.0189 27.579C95.448 28.0313 95.4248 28.3676 94.9029 28.7156C93.9519 29.365 92.9313 29.8173 91.7947 30.0377C89.9391 30.3972 88.1183 30.3276 86.4019 29.4694C84.3955 28.472 83.2589 26.8136 82.8994 24.6216C82.6327 22.9748 82.8066 21.3859 83.6069 19.913C84.5579 18.1502 86.0307 17.0484 87.9907 16.6657C89.9971 16.2714 91.9107 16.5149 93.604 17.7559C94.8913 18.6953 95.6567 19.9826 95.9467 21.5367C96.0742 22.1861 96.0742 22.8588 96.0858 23.5315C96.0974 24.0765 95.8191 24.3085 95.2624 24.3085C93.6619 24.3085 92.0615 24.3085 90.461 24.3085C88.9997 24.3085 87.5384 24.3085 86.0887 24.3085C86.0075 24.3201 85.8916 24.3201 85.7408 24.3201ZM93.314 22.1977C93.3256 22.1629 93.3372 22.1397 93.3372 22.1282C93.3372 22.0934 93.3372 22.0702 93.3372 22.0354C93.198 20.8176 92.5254 19.9942 91.4468 19.4839C90.7046 19.136 89.9043 19.0896 89.1041 19.1476C88.0487 19.2172 87.1209 19.5999 86.4135 20.4233C85.9844 20.922 85.7176 21.5019 85.7292 22.1977C88.2807 22.1977 90.7973 22.1977 93.314 22.1977Z" fill="white"/>
<path d="M113.633 16.5149C115.245 16.5381 116.857 16.9208 118.376 17.6747C118.921 17.953 119.014 18.243 118.747 18.7764C118.597 19.0664 118.458 19.3563 118.295 19.6347C118.028 20.1102 117.762 20.1914 117.263 19.9478C116.126 19.4027 114.955 19.0084 113.691 18.9968C113.169 18.9968 112.636 19.0548 112.137 19.1824C111.557 19.3215 111.255 19.739 111.221 20.2841C111.186 20.8524 111.487 21.2351 111.974 21.4091C112.682 21.6642 113.424 21.8266 114.155 22.0354C115.175 22.3253 116.208 22.5689 117.205 22.94C118.017 23.2415 118.713 23.7982 119.107 24.61C119.768 25.9901 119.513 28.1589 117.669 29.3186C116.903 29.8057 116.057 30.0841 115.164 30.1653C113.111 30.3624 111.128 30.1189 109.214 29.3186C108.936 29.2027 108.658 29.0635 108.391 28.9243C108.02 28.7156 107.915 28.4488 108.078 28.0545C108.252 27.637 108.437 27.2195 108.646 26.8136C108.832 26.4424 109.133 26.3729 109.574 26.5816C109.991 26.7788 110.409 26.9991 110.838 27.1615C112.137 27.6486 113.482 27.8225 114.862 27.6254C115.129 27.5906 115.396 27.4862 115.639 27.3702C116.15 27.1267 116.358 26.686 116.358 26.1293C116.347 25.5842 116.068 25.2131 115.593 25.0275C115.001 24.7956 114.387 24.61 113.772 24.4593C112.612 24.1809 111.429 23.9838 110.339 23.4735C109.632 23.1487 108.959 22.7892 108.565 22.0702C107.857 20.7828 108.078 18.3821 109.91 17.3384C111.035 16.7237 112.264 16.5265 113.633 16.5149Z" fill="white"/>
<path d="M101.711 18.5561C102.766 17.1876 104.158 16.6193 105.781 16.5149C105.909 16.5033 106.048 16.5265 106.176 16.5497C106.466 16.6077 106.64 16.8049 106.593 17.0832C106.489 17.7095 106.361 18.3357 106.21 18.9504C106.141 19.2404 105.886 19.2751 105.631 19.2751C104.912 19.2867 104.216 19.3911 103.566 19.7043C102.476 20.2261 101.873 21.1076 101.85 22.2905C101.803 24.5404 101.827 26.7904 101.827 29.0403C101.827 29.1911 101.827 29.3418 101.803 29.4926C101.757 29.8405 101.548 30.0377 101.2 30.0493C100.644 30.0609 100.087 30.0609 99.5303 30.0493C99.1476 30.0377 98.9156 29.8057 98.8808 29.423C98.8692 29.3186 98.8808 29.2259 98.8808 29.1215C98.8808 25.2943 98.8808 21.4555 98.8808 17.6283C98.8808 16.9092 99.0316 16.7353 99.739 16.6541C100.18 16.6077 100.62 16.5729 101.073 16.5613C101.513 16.5497 101.722 16.7701 101.734 17.2108C101.722 17.6515 101.711 18.0806 101.711 18.5561Z" fill="white"/>
<path d="M60.0522 23.3575C60.0522 21.3975 60.0522 19.4491 60.0522 17.4891C60.0522 16.8397 60.2609 16.6425 60.9104 16.6309C61.3511 16.6309 61.7802 16.6309 62.2209 16.6309C62.6964 16.6309 62.9052 16.8281 62.9516 17.3036C62.9632 17.4196 62.9632 17.5239 62.9632 17.6399C62.9632 21.4555 62.9632 25.2595 62.9632 29.0751C62.9632 29.2143 62.9632 29.365 62.94 29.5042C62.8936 29.8753 62.6848 30.0725 62.3137 30.0841C61.7802 30.0957 61.2351 30.0957 60.7017 30.0841C60.2841 30.0725 60.0638 29.8173 60.0638 29.3534C60.0638 28.4604 60.0638 27.5674 60.0638 26.6744C60.0522 25.561 60.0522 24.4593 60.0522 23.3575Z" fill="white"/>
<path d="M63.5315 12.6182C63.5315 13.6967 62.6384 14.5781 61.5483 14.5781C60.4349 14.5781 59.5883 13.7431 59.5767 12.6529C59.5767 11.5512 60.4349 10.7046 61.5483 10.693C62.6384 10.693 63.5315 11.5512 63.5315 12.6182Z" fill="white"/>
<path d="M33.1811 25.0261L24.4829 0.937979C24.3785 0.636442 24.1234 0.427686 23.8103 0.3581C12.9897 -1.74106 2.47074 5.35665 0.37158 16.1772C-1.72758 26.9977 5.35853 37.5167 16.1791 39.6275C17.4432 39.871 18.7421 39.9986 20.0179 39.9986C20.1454 39.9986 20.273 39.9986 20.4122 39.9986C20.6789 39.9986 20.9341 39.8594 21.108 39.6507C21.2704 39.4303 21.3284 39.152 21.2704 38.8968L19.6003 32.0658C20.0411 31.7063 20.3194 31.1612 20.3194 30.5698C20.3194 29.5028 19.4264 28.6446 18.3362 28.6446C17.2113 28.6446 16.3646 29.5028 16.3646 30.6046C16.3646 31.5324 16.9793 32.2746 17.8607 32.4718C17.8607 32.4834 17.8607 32.4834 17.8607 32.495L19.2524 38.201C18.3362 38.1662 17.4316 38.0502 16.527 37.8762C6.66906 35.951 0.209214 26.3714 2.12281 16.5251C4.01322 6.82954 13.3029 0.427686 22.9752 2.03975L31.2559 24.9681L27.5563 27.334C26.1762 25.9191 22.349 22.2427 19.0437 21.4193C17.5012 21.0366 16.5502 19.7956 16.0283 18.8098C15.6572 18.114 15.4252 17.4297 15.2861 16.8614C15.8427 16.5135 16.2139 15.8988 16.2139 15.2146C16.2139 14.1476 15.3208 13.2894 14.2307 13.2894C13.1057 13.2894 12.2591 14.1476 12.2591 15.2494C12.2591 16.0844 12.7578 16.7571 13.4884 17.0354C13.6392 17.7544 13.8943 18.4967 14.1843 19.1462C15.1701 21.2685 16.7357 22.695 18.603 23.1589C22.1054 24.0287 26.6981 29.0389 26.7445 29.0853C27.0344 29.41 27.5215 29.468 27.8926 29.236L32.8216 26.0931C33.1811 25.8612 33.3203 25.4204 33.1811 25.0261Z" fill="url(#paint0_linear)"/>
</g>
<defs>
<linearGradient id="paint0_linear" x1="0.000458136" y1="19.9983" x2="33.2365" y2="19.9983" gradientUnits="userSpaceOnUse">
<stop stop-color="#05E575"/>
<stop offset="1" stop-color="#05C275"/>
</linearGradient>
<clipPath id="clip0">
<rect width="119.42" height="40" fill="white"/>
</clipPath>
</defs>
</svg>
